<svg width="76" height="76" viewBox="0 0 76 76" fill="none" xmlns="http://www.w3.org/2000/svg">
<g id="SVG">
<g id="Group">
<path id="Vector" d="M45.8633 0.703125H30.8633C14.275 0.703125 0.863281 14.1149 0.863281 30.7031V45.7031C0.863281 58.3208 8.71622 69.1737 19.7456 73.5855C23.1868 74.909 26.8927 75.7031 30.8633 75.7031H45.8633C51.1574 75.7031 56.1868 74.2914 60.5103 71.909C60.5986 71.8208 60.6868 71.8208 60.775 71.7325C69.775 66.5267 75.8633 56.8208 75.8633 45.7031V30.7031C75.8633 14.1149 62.4515 0.703125 45.8633 0.703125ZM74.0986 45.7031C74.0986 55.1443 69.4221 63.5267 62.275 68.6443V66.4384V62.9972H65.7162V59.5561H62.275V56.1149H65.7162V52.6737H62.275H59.9809V49.2325V45.7031H56.5397V49.1443V52.5855H58.8339V56.0267V59.4678V62.909H55.3927H51.9515V66.3502H55.3927H58.8339V69.7914V70.6737C54.9515 72.7914 50.5398 73.9384 45.8633 73.9384H30.8633C26.8927 73.9384 23.1868 73.1443 19.7456 71.6443V69.8796V66.4384H23.1868H26.628V62.9972H23.1868H19.7456V59.5561V56.1149V52.6737H22.0398V49.2325V45.7031H18.5986V49.1443V52.5855H16.3045H12.8633V56.0267H16.3045V59.4678H12.8633V62.909H16.3045V66.3502V69.7914C8.09858 64.9384 2.62799 55.9384 2.62799 45.7031V30.7031C2.62799 15.1737 15.3339 2.46783 30.8633 2.46783H45.8633C61.3927 2.46783 74.0986 15.1737 74.0986 30.7031V45.7031ZM45.0692 49.1443H48.5103V52.5855V56.0267H45.0692V52.5855V49.1443ZM30.0692 49.1443H33.5103V52.5855V56.0267H30.0692V52.5855V49.1443ZM25.4809 45.7031H22.0398V42.2619V38.8208V35.3796H25.4809V38.8208V42.2619V45.7031ZM28.9221 35.3796H25.4809V31.9384H28.9221V35.3796ZM28.9221 38.8208V35.3796H32.3633V38.8208H28.9221ZM56.5397 42.2619V45.7031H53.0986V42.2619V38.8208V35.3796H56.5397V38.8208V42.2619ZM32.3633 42.2619V38.8208H35.8045H39.2456H42.6868H46.128V42.2619H42.6868H39.2456H35.8045H32.3633ZM53.0986 35.3796H49.6574V31.9384H53.0986V35.3796ZM49.6574 38.8208H46.2162V35.3796H49.6574V38.8208Z" fill="url(#paint0_linear_2_3083)"/>
</g>
</g>
<defs>
<linearGradient id="paint0_linear_2_3083" x1="9.65187" y1="66.9094" x2="67.0739" y2="9.48739" gradientUnits="userSpaceOnUse">
<stop stop-color="#E4B8BF"/>
<stop offset="1" stop-color="#CEC4EF"/>
</linearGradient>
</defs>
</svg>
